<svg id="Icon_Dashboard" data-name="Icon Dashboard" xmlns="http://www.w3.org/2000/svg" xmlns:xlink="http://www.w3.org/1999/xlink" width="30" height="30" viewBox="0 0 30 30">
  <defs>
    <clipPath id="clip-path">
      <rect id="Rechteck_417" data-name="Rechteck 417" width="30" height="30" fill="#707070"/>
    </clipPath>
  </defs>
  <g id="Gruppe_712" data-name="Gruppe 712" clip-path="url(#clip-path)">
    <path id="Pfad_661" data-name="Pfad 661" d="M0,219.531v-9.609a.413.413,0,0,0,.04-.078,2.4,2.4,0,0,1,2.576-1.992q4.261,0,8.522,0a3.279,3.279,0,0,1,.67.048,2.4,2.4,0,0,1,1.924,2.485c.006,1.943,0,3.885,0,5.828,0,1.035.009,2.07-.015,3.1a2.1,2.1,0,0,1-.907,1.725,6.926,6.926,0,0,1-1.15.538H2.051c-.062-.022-.123-.047-.187-.064a2.413,2.413,0,0,1-1.723-1.549c-.054-.143-.094-.291-.141-.437" transform="translate(0 -191.581)" fill="#707070"/>
    <path id="Pfad_662" data-name="Pfad 662" d="M219.529,221.577H209.92a.185.185,0,0,0-.048-.031,2.417,2.417,0,0,1-2.024-2.612q0-4.261,0-8.521a2.4,2.4,0,0,1,2.563-2.565q4.3,0,8.609,0a3.052,3.052,0,0,1,.64.051,2.4,2.4,0,0,1,1.918,2.433q.006,4.29,0,8.58a2.43,2.43,0,0,1-2.006,2.629c-.017,0-.03.023-.044.035" transform="translate(-191.58 -191.577)" fill="#707070"/>
    <path id="Pfad_663" data-name="Pfad 663" d="M0,11.663V2.054c.012-.015.03-.028.035-.045A2.431,2.431,0,0,1,2.664,0h8.492a2.411,2.411,0,0,1,2.575,2.557q.008,4.3,0,8.609a2.4,2.4,0,0,1-2.565,2.563q-3.367,0-6.735,0c-.693,0-1.386.013-2.079-.006A2.39,2.39,0,0,1,.061,11.857c-.016-.066-.04-.129-.061-.193" transform="translate(0 -0.003)" fill="#707070"/>
    <path id="Pfad_664" data-name="Pfad 664" d="M214.684,13.731q-2.138,0-4.276,0a2.4,2.4,0,0,1-2.57-2.559q-.007-4.306,0-8.611A2.413,2.413,0,0,1,210.413,0q4.291,0,8.582,0a2.42,2.42,0,0,1,2.573,2.564q0,4.306,0,8.611a2.411,2.411,0,0,1-2.55,2.554q-2.168,0-4.335,0" transform="translate(-191.57 0)" fill="#707070"/>
  </g>
</svg>
