<svg id="Gruppe_1190" data-name="Gruppe 1190" xmlns="http://www.w3.org/2000/svg" xmlns:xlink="http://www.w3.org/1999/xlink" width="26.922" height="27" viewBox="0 0 26.922 27">
  <defs>
    <clipPath id="clip-path">
      <rect id="Rechteck_701" data-name="Rechteck 701" width="26.922" height="27" fill="#707070"/>
    </clipPath>
  </defs>
  <g id="Gruppe_1189" data-name="Gruppe 1189" clip-path="url(#clip-path)">
    <path id="Pfad_924" data-name="Pfad 924" d="M14.851,4.77V14.1a10.79,10.79,0,0,0,9.487,10.029c.9.1,1.848-.153,2.387.748a1.377,1.377,0,0,1-.424,1.859c-.667.453-2.3.177-3.1.04a13.558,13.558,0,0,1-9.271-6.408c-.144-.237-.263-.528-.4-.757-.028-.045.015-.1-.1-.075a14.2,14.2,0,0,1-.853,1.472,13.57,13.57,0,0,1-8.565,5.72,11.23,11.23,0,0,1-2.821.245A1.42,1.42,0,0,1,.128,24.989c.475-1.014,1.588-.763,2.5-.866A10.788,10.788,0,0,0,12.064,14.1V4.77L8.324,8.493A1.389,1.389,0,0,1,6.162,6.85c2.043-2.255,4.3-4.338,6.424-6.528A1.36,1.36,0,0,1,14.271.263L20.593,6.6a1.392,1.392,0,0,1-1.77,2.064Z" transform="translate(0 0)" fill="#707070"/>
  </g>
</svg>
